<svg width="191" height="279" viewBox="0 0 191 279" fill="none" xmlns="http://www.w3.org/2000/svg">
<path d="M28.425 177.625C26.5088 177.625 24.6711 176.864 23.3162 175.509C21.9612 174.154 21.2 172.316 21.2 170.4C21.2 168.484 21.9612 166.646 23.3162 165.291C24.6711 163.936 26.5088 163.175 28.425 163.175H136.575C138.491 163.175 140.329 163.936 141.684 165.291C143.039 166.646 143.8 168.484 143.8 170.4C143.8 172.316 143.039 174.154 141.684 175.509C140.329 176.864 138.491 177.625 136.575 177.625H28.425ZM28.425 216.25C26.5088 216.25 24.6711 215.489 23.3162 214.134C21.9612 212.779 21.2 210.941 21.2 209.025C21.2 207.109 21.9612 205.271 23.3162 203.916C24.6711 202.561 26.5088 201.8 28.425 201.8H136.575C138.491 201.8 140.329 202.561 141.684 203.916C143.039 205.271 143.8 207.109 143.8 209.025C143.8 210.941 143.039 212.779 141.684 214.134C140.329 215.489 138.491 216.25 136.575 216.25H28.425Z" fill="#CAD8F3" stroke="#CAD8F3"/>
<path d="M184.179 80.9426L184.179 80.9427C188.018 85.1246 190.149 90.5943 190.15 96.2709V255.375C190.15 261.389 187.761 267.156 183.509 271.409C179.256 275.661 173.489 278.05 167.475 278.05H-2.47499C-8.48878 278.05 -14.2563 275.661 -18.5086 271.409C-22.761 267.156 -25.15 261.389 -25.15 255.375V23.625C-25.15 17.6112 -22.761 11.8437 -18.5086 7.59135C-14.2563 3.33897 -8.48878 0.949999 -2.47499 0.949999L100.808 0.949999L100.808 0.949999C103.952 0.948642 107.062 1.60105 109.94 2.8658C112.819 4.13055 115.402 5.98 117.528 8.2967L117.896 7.9587L117.528 8.29672L184.179 80.9426ZM104.123 16.0938L103.922 16.5516L100.808 15.4H100.808H-2.47499C-4.6564 15.4 -6.74846 16.2666 -8.29095 17.809C-9.83343 19.3515 -10.7 21.4436 -10.7 23.625V255.375C-10.7 257.556 -9.83343 259.648 -8.29095 261.191C-6.74846 262.733 -4.6564 263.6 -2.47499 263.6H167.475C169.656 263.6 171.748 262.733 173.291 261.191C174.833 259.648 175.7 257.556 175.7 255.375V96.2709V96.2704C175.698 94.2105 174.923 92.2264 173.529 90.7103L106.878 18.0649C106.106 17.2239 105.168 16.5526 104.123 16.0938Z" fill="#CAD8F3" stroke="#CAD8F3"/>
<path d="M105.675 17.445V90.06H178.29" stroke="#CAD8F3" stroke-linecap="round" stroke-linejoin="round"/>
<path d="M59.9515 78.1823C57.9557 78.9558 55.825 79.3206 53.6856 79.2551C49.5327 79.1279 45.5926 77.3888 42.7 74.4063C39.8074 71.4238 38.1898 67.4322 38.1898 63.2774C38.1898 59.1226 39.8074 55.1311 42.7 52.1485C45.5926 49.166 49.5327 47.4269 53.6856 47.2998C55.825 47.2342 57.9557 47.599 59.9515 48.3725C61.9472 49.146 63.7673 50.3124 65.3038 51.8025C66.8402 53.2927 68.0618 55.0762 68.896 57.0473C69.7302 59.0184 70.16 61.137 70.16 63.2774C70.16 65.4178 69.7302 67.5364 68.896 69.5075C68.0618 71.4787 66.8402 73.2622 65.3038 74.7523C63.7673 76.2425 61.9472 77.4088 59.9515 78.1823Z" fill="#CAD8F3" stroke="#CAD8F3"/>
<path d="M53.6549 85.7551C71.6302 85.7551 86.1097 98.2644 86.1097 115.46V123.709C86.106 125.03 85.5795 126.296 84.6452 127.23C83.7112 128.164 82.4457 128.691 81.1249 128.695C81.1244 128.695 81.124 128.695 81.1236 128.695L26.2002 128.695C24.8765 128.695 23.6068 128.17 22.6695 127.235C21.7323 126.301 21.2039 125.033 21.2 123.709V115.46C21.2 98.2491 35.6793 85.7551 53.6549 85.7551Z" fill="#CAD8F3" stroke="#CAD8F3"/>
</svg>
